<?xml version="1.0" encoding="utf-8"?>
<!-- Generator: Adobe Illustrator 27.3.1, SVG Export Plug-In . SVG Version: 6.00 Build 0)  -->
<svg version="1.1" id="Слой_1" xmlns="http://www.w3.org/2000/svg" xmlns:xlink="http://www.w3.org/1999/xlink" x="0px" y="0px"
	 viewBox="0 0 283.46 283.46" style="enable-background:new 0 0 283.46 283.46;" xml:space="preserve">
<style type="text/css">
	.st0{fill:#E0E0E0;}
</style>
<path class="st0" d="M237.63,100.57c9.54,7.3,15.13,18.63,15.13,30.64l0,91.51c0,14.61-11.84,26.44-26.44,26.44h-36.86
	c-5.88,0-10.65-4.77-10.65-10.65V207.3c0-13.29-10.78-24.06-24.06-24.06h-26.01c-13.29,0-24.06,10.77-24.06,24.06v31.21
	c0,5.88-4.77,10.65-10.65,10.65H57.16c-14.6,0-26.43-11.83-26.43-26.44l0-91.28c0-11.99,5.57-23.3,15.08-30.61
	c24.15-18.55,48.3-37.11,72.45-55.66c13.85-10.64,33.12-10.65,46.98-0.03C189.37,63.61,213.5,82.09,237.63,100.57z"/>
</svg>
