<?xml version="1.0" encoding="utf-8"?>
<!-- Generator: Adobe Illustrator 27.3.1, SVG Export Plug-In . SVG Version: 6.00 Build 0)  -->
<svg version="1.1" id="Слой_1" xmlns="http://www.w3.org/2000/svg" xmlns:xlink="http://www.w3.org/1999/xlink" x="0px" y="0px"
	 viewBox="0 0 384.85 948.87" style="enable-background:new 0 0 384.85 948.87;" xml:space="preserve">
<style type="text/css">
	.st0{fill:#4A494A;}
	.st1{fill:#E0E0E0;}
</style>
<path class="st0" d="M255.09,948.87H129.75C58.39,948.87,0,890.48,0,819.11l0-434.26L384.85,0v819.11
	C384.85,890.48,326.46,948.87,255.09,948.87z"/>
<path class="st1" d="M209.17,700.08l4.82-27.75c6.82-1.84,13.29-4.54,19.28-7.98l23.03,16.21c1.89,1.33,4.47,1.11,6.1-0.52
	l17.05-17.06c1.63-1.63,1.86-4.21,0.53-6.09l-16.21-23.04c3.43-5.99,6.14-12.46,7.98-19.27l27.74-4.83c2.28-0.4,3.94-2.37,3.94-4.68
	v-24.13c0-2.31-1.66-4.29-3.94-4.68l-27.74-4.82c-1.84-6.82-4.54-13.29-7.98-19.28l16.21-23.03c1.33-1.89,1.1-4.47-0.53-6.1
	l-17.05-17.05c-1.63-1.63-4.21-1.86-6.1-0.53l-23.03,16.21c-5.99-3.44-12.46-6.14-19.28-7.98l-4.82-27.74
	c-0.4-2.28-2.37-3.94-4.68-3.94h-24.13c-2.3,0-4.28,1.66-4.68,3.94l-4.83,27.74c-6.82,1.84-13.28,4.55-19.27,7.98l-23.04-16.21
	c-1.88-1.33-4.46-1.1-6.09,0.53l-17.06,17.05c-1.63,1.63-1.85,4.21-0.52,6.1l16.21,23.03c-3.44,5.99-6.14,12.46-7.98,19.28
	l-27.75,4.82c-2.27,0.4-3.94,2.37-3.94,4.68v24.13c0,2.31,1.66,4.28,3.94,4.68l27.75,4.83c1.84,6.82,4.55,13.28,7.98,19.27
	l-16.21,23.04c-1.33,1.88-1.11,4.46,0.52,6.09l17.06,17.06c1.63,1.63,4.21,1.85,6.09,0.52l23.04-16.21
	c5.99,3.43,12.46,6.14,19.27,7.98l4.83,27.75c0.4,2.27,2.37,3.94,4.68,3.94h24.13C206.8,704.01,208.77,702.35,209.17,700.08z
	 M149.19,592.99c0-23.88,19.36-43.23,43.23-43.23c23.88,0,43.23,19.35,43.23,43.23c0,23.88-19.35,43.23-43.23,43.23
	C168.55,636.23,149.19,616.87,149.19,592.99z"/>
</svg>
